HIERARCHY
ROOT hip
{
  OFFSET 0 0 0
  CHANNELS 6 Xposition Yposition Zposition Zrotation Yrotation Xrotation
  JOINT abdomen
  {
    OFFSET 0 20.6881 -0.73152
    CHANNELS 3 Zrotation Xrotation Yrotation
    JOINT chest
    {
      OFFSET 0 11.7043 -0.48768
      CHANNELS 3 Zrotation Xrotation Yrotation
      JOINT neck
      {
        OFFSET 0 22.1894 -2.19456
        CHANNELS 3 Zrotation Xrotation Yrotation
        JOINT head
        {
          OFFSET -0.24384 7.07133 1.2192
          CHANNELS 3 Zrotation Xrotation Yrotation
          JOINT leftEye
          {
            OFFSET 4.14528 8.04674 8.04672
            CHANNELS 3 Zrotation Xrotation Yrotation
            End Site
            {
              OFFSET 1 0 0
            }
          }
          JOINT rightEye
          {
            OFFSET -3.6576 8.04674 8.04672
            CHANNELS 3 Zrotation Xrotation Yrotation
            End Site
            {
              OFFSET 1 0 0
            }
          }
        }
      }
      JOINT rCollar
      {
        OFFSET -2.68224 19.2634 -4.8768
        CHANNELS 3 Zrotation Xrotation Yrotation
        JOINT rShldr
        {
          OFFSET -8.77824 -1.95073 1.46304
          CHANNELS 3 Zrotation Xrotation Yrotation
          JOINT rForeArm
          {
            OFFSET -28.1742 -1.7115 0.48768
            CHANNELS 3 Zrotation Xrotation Yrotation
            JOINT rHand
            {
              OFFSET -22.5879 0.773209 7.07136
              CHANNELS 3 Zrotation Xrotation Yrotation
              JOINT rThumb1
              {
                OFFSET -1.2192 -0.487915 3.41376
                CHANNELS 3 Zrotation Xrotation Yrotation
                JOINT rThumb2
                {
                  OFFSET -3.37035 -0.52449 3.41376
                  CHANNELS 3 Zrotation Xrotation Yrotation
                  End Site
                  {
                    OFFSET -1.78271 -1.18214 1.43049
                  }
                }
              }
              JOINT rIndex1
              {
                OFFSET -7.75947 0.938293 5.60832
                CHANNELS 3 Zrotation Xrotation Yrotation
                JOINT rIndex2
                {
                  OFFSET -2.54057 -0.884171 1.56538
                  CHANNELS 3 Zrotation Xrotation Yrotation
                  End Site
                  {
                    OFFSET -1.62519 -0.234802 1.16502
                  }
                }
              }
              JOINT rMid1
              {
                OFFSET -8.24714 1.18213 3.41376
                CHANNELS 3 Zrotation Xrotation Yrotation
                JOINT rMid2
                {
                  OFFSET -3.10165 -0.590103 1.0647
                  CHANNELS 3 Zrotation Xrotation Yrotation
                  End Site
                  {
                    OFFSET -2.48547 -0.328903 0.83742
                  }
                }
              }
              JOINT rRing1
              {
                OFFSET -8.82822 0.546677 1.51678
                CHANNELS 3 Zrotation Xrotation Yrotation
                JOINT rRing2
                {
                  OFFSET -2.60934 -0.819778 -0.0198488
                  CHANNELS 3 Zrotation Xrotation Yrotation
                  End Site
                  {
                    OFFSET -2.33842 -0.294052 0.168128
                  }
                }
              }
              JOINT rPinky1
              {
                OFFSET -8.27202 -0.0477905 -0.4584
                CHANNELS 3 Zrotation Xrotation Yrotation
                JOINT rPinky2
                {
                  OFFSET -1.82734 -0.647385 -0.700984
                  CHANNELS 3 Zrotation Xrotation Yrotation
                  End Site
                  {
                    OFFSET -1.69225 -0.51767 -0.607171
                  }
                }
              }
            }
          }
        }
      }
      JOINT lCollar
      {
        OFFSET 2.68224 19.2634 -4.8768
        CHANNELS 3 Zrotation Xrotation Yrotation
        JOINT lShldr
        {
          OFFSET 8.77824 -1.95073 1.46304
          CHANNELS 3 Zrotation Xrotation Yrotation
          JOINT lForeArm
          {
            OFFSET 28.1742 -1.7115 0.48768
            CHANNELS 3 Zrotation Xrotation Yrotation
            JOINT lHand
            {
              OFFSET 22.5879 0.773209 7.07136
              CHANNELS 3 Zrotation Xrotation Yrotation
              JOINT lThumb1
              {
                OFFSET 1.2192 -0.487915 3.41376
                CHANNELS 3 Zrotation Xrotation Yrotation
                JOINT lThumb2
                {
                  OFFSET 3.37035 -0.52449 3.41376
                  CHANNELS 3 Zrotation Xrotation Yrotation
                  End Site
                  {
                    OFFSET 1.78271 -1.18214 1.43049
                  }
                }
              }
              JOINT lIndex1
              {
                OFFSET 7.75947 0.938293 5.60832
                CHANNELS 3 Zrotation Xrotation Yrotation
                JOINT lIndex2
                {
                  OFFSET 2.54057 -0.884171 1.56538
                  CHANNELS 3 Zrotation Xrotation Yrotation
                  End Site
                  {
                    OFFSET 1.62519 -0.234802 1.16502
                  }
                }
              }
              JOINT lMid1
              {
                OFFSET 8.24714 1.18213 3.41376
                CHANNELS 3 Zrotation Xrotation Yrotation
                JOINT lMid2
                {
                  OFFSET 3.10165 -0.590103 1.0647
                  CHANNELS 3 Zrotation Xrotation Yrotation
                  End Site
                  {
                    OFFSET 2.48547 -0.328903 0.83742
                  }
                }
              }
              JOINT lRing1
              {
                OFFSET 8.82822 0.546677 1.51678
                CHANNELS 3 Zrotation Xrotation Yrotation
                JOINT lRing2
                {
                  OFFSET 2.60934 -0.819778 -0.0198488
                  CHANNELS 3 Zrotation Xrotation Yrotation
                  End Site
                  {
                    OFFSET 2.33842 -0.294052 0.168128
                  }
                }
              }
              JOINT lPinky1
              {
                OFFSET 8.27202 -0.0477905 -0.4584
                CHANNELS 3 Zrotation Xrotation Yrotation
                JOINT lPinky2
                {
                  OFFSET 1.82734 -0.647385 -0.700984
                  CHANNELS 3 Zrotation Xrotation Yrotation
                  End Site
                  {
                    OFFSET 1.69225 -0.51767 -0.607171
                  }
                }
              }
            }
          }
        }
      }
    }
  }
  JOINT rButtock
  {
    OFFSET -8.77824 4.35084 1.2192
    CHANNELS 3 Zrotation Xrotation Yrotation
    JOINT rThigh
    {
      OFFSET 0 -1.70687 -2.19456
      CHANNELS 3 Zrotation Xrotation Yrotation
      JOINT rShin
      {
        OFFSET 0 -36.8199 0.73152
        CHANNELS 3 Zrotation Xrotation Yrotation
        JOINT rFoot
        {
          OFFSET 0.73152 -45.1104 -5.12064
          CHANNELS 3 Zrotation Xrotation Yrotation
          End Site
          {
            OFFSET -1.1221 -3.69964 12.103
          }
        }
      }
    }
  }
  JOINT lButtock
  {
    OFFSET 8.77824 4.35084 1.2192
    CHANNELS 3 Zrotation Xrotation Yrotation
    JOINT lThigh
    {
      OFFSET 0 -1.70687 -2.19456
      CHANNELS 3 Zrotation Xrotation Yrotation
      JOINT lShin
      {
        OFFSET 0 -36.8199 0.73152
        CHANNELS 3 Zrotation Xrotation Yrotation
        JOINT lFoot
        {
          OFFSET -0.73152 -45.1104 -5.12064
          CHANNELS 3 Zrotation Xrotation Yrotation
          End Site
          {
            OFFSET 1.1221 -3.69964 12.103
          }
        }
      }
    }
  }
}
MOTION
Frames:	6
Frame Time:	0.00833333
60.7817 123.13 53.8709 208.737 -245.009 -126.384 -6.07755 -21.4098 -5.25707 2.4584 9.70443 -1.33178 -3.33377 14.722 -0.628122 9.76089 -19.4552 0.713508 -0.0 0.0 0.0 -0.0 0.0 0.0 -1.79701e-13 1.57834e-12 -3.11595e-13 92.9291 30.1032 -14.2743 -26.1568 -23.8436 57.4256 -0.103095 -9.1193 -1.29268 1.04375e-09 -2.6335e-09 4.66544e-09 1.77058e-09 -4.52518e-09 8.05446e-09 1.04376e-09 -2.6335e-09 4.66543e-09 7.73091 5.47488 0.417314 1.04375e-09 -2.6335e-09 4.66543e-09 2.90554 0.965183 0.102902 1.04376e-09 -2.6335e-09 4.66544e-09 10.2786 0.731801 0.0259123 1.04375e-09 -2.6335e-09 4.66544e-09 2.22167 -0.733487 -0.20892 -1.79763e-13 1.57836e-12 -3.11794e-13 -38.0533 55.5531 -37.749 24.5913 -20.2449 -51.5378 0.017478 -3.77158 0.530836 4.97378e-10 1.97662e-09 -2.98383e-09 8.71857e-10 3.41357e-09 -5.1424e-09 4.97379e-10 1.97663e-09 -2.98381e-09 -7.73091 5.47488 -0.417314 4.97376e-10 1.97662e-09 -2.98383e-09 -2.90554 0.965183 -0.102902 4.97367e-10 1.97662e-09 -2.98384e-09 -10.2786 0.731801 -0.0259123 4.97373e-10 1.97662e-09 -2.98384e-09 -2.22167 -0.733487 0.20892 -2.03217e-16 0.0 -3.88251e-19 5.75118 -44.5883 7.51871 -0.223562 34.0588 0.519805 -0.569828 26.6335 0.720301 2.03217e-16 0.0 3.88251e-19 -3.35021 -57.5826 -22.6078 0.50114 45.3827 -0.618356 -2.71933 25.8893 8.15986
60.9977 122.706 54.1011 214.03 -247.794 -121.275 -6.37139 -21.4269 -5.48112 2.43526 9.62873 -1.36854 -3.3072 14.9218 -0.647352 9.76944 -19.478 0.685088 -0.0 0.0 0.0 -0.0 0.0 0.0 -1.35359e-13 1.25715e-12 -2.23317e-13 93.1371 29.9069 -14.7816 -26.1293 -23.771 57.3086 -0.103236 -9.11931 -1.2927 7.76333e-10 -3.01148e-09 4.37051e-09 1.31035e-09 -5.18185e-09 7.54585e-09 7.76339e-10 -3.01147e-09 4.3705e-09 7.73091 5.47488 0.417314 7.76331e-10 -3.01147e-09 4.37051e-09 2.90554 0.965183 0.102902 7.76337e-10 -3.01147e-09 4.37051e-09 10.2786 0.731801 0.0259123 7.76329e-10 -3.01147e-09 4.37052e-09 2.22167 -0.733487 -0.20892 -1.35434e-13 1.25717e-12 -2.23526e-13 -37.7922 54.9431 -36.5685 24.716 -20.4968 -51.9841 0.0192477 -3.95419 0.556627 5.50915e-10 2.84478e-09 -3.11928e-09 9.65341e-10 4.92124e-09 -5.38081e-09 5.50915e-10 2.84478e-09 -3.11926e-09 -7.73091 5.47488 -0.417314 5.50912e-10 2.84477e-09 -3.11928e-09 -2.90554 0.965183 -0.102902 5.50905e-10 2.84477e-09 -3.11928e-09 -10.2786 0.731801 -0.0259123 5.50912e-10 2.84477e-09 -3.11929e-09 -2.22167 -0.733487 0.20892 -2.03217e-16 0.0 -3.88251e-19 5.28942 -44.4324 8.48042 -0.221658 33.9554 0.521144 -0.531938 25.8894 0.642565 2.03217e-16 0.0 3.88251e-19 -2.80974 -58.02 -21.0925 0.526532 46.3472 -0.657994 -2.74642 25.5478 8.34012
61.2456 122.205 54.3871 220.043 -250.044 -115.442 -6.835 -21.688 -5.61317 2.38786 9.57602 -1.36068 -3.21034 15.2257 -0.680973 9.75082 -19.5254 0.622912 -0.0 0.0 0.0 -0.0 0.0 0.0 -2.08384e-14 6.07979e-13 -1.62196e-13 93.5279 29.5917 -15.3948 -26.1015 -23.698 57.1913 -0.0992394 -8.9468 -1.26782 4.17691e-10 -2.19233e-09 2.82894e-09 7.0173e-10 -3.77578e-09 4.88479e-09 4.17697e-10 -2.19233e-09 2.82893e-09 7.73091 5.47488 0.417314 4.1769e-10 -2.19233e-09 2.82894e-09 2.90554 0.965183 0.102902 4.17698e-10 -2.19233e-09 2.82894e-09 10.2786 0.731801 0.0259123 4.17687e-10 -2.19233e-09 2.82895e-09 2.22167 -0.733487 -0.20892 -2.09327e-14 6.07989e-13 -1.6242e-13 -37.6267 54.2313 -35.3273 24.8058 -20.6819 -52.3067 0.0223183 -4.23082 0.595738 2.83771e-10 2.31654e-09 -2.25685e-09 5.00283e-10 4.01094e-09 -3.89684e-09 2.83771e-10 2.31654e-09 -2.25683e-09 -7.73091 5.47488 -0.417314 2.83769e-10 2.31654e-09 -2.25684e-09 -2.90554 0.965183 -0.102902 2.83764e-10 2.31654e-09 -2.25685e-09 -10.2786 0.731801 -0.0259123 2.83772e-10 2.31654e-09 -2.25685e-09 -2.22167 -0.733487 0.20892 -2.03217e-16 0.0 -3.88251e-19 4.77966 -44.3607 9.61371 -0.218835 33.7846 0.521948 -0.516233 24.9416 0.622968 2.03217e-16 0.0 3.88251e-19 -2.17752 -58.5543 -19.3406 0.551618 47.2645 -0.698221 -2.76615 25.1678 8.51818
61.4758 121.622 54.656 227.531 -251.979 -107.964 -7.30739 -22.0734 -5.72279 2.35481 9.54016 -1.34386 -3.1247 15.5232 -0.704689 9.72975 -19.5723 0.579598 -0.0 0.0 0.0 -0.0 0.0 0.0 1.00938e-13 -6.26108e-14 -1.20102e-13 93.92 29.3132 -16.0201 -26.0723 -23.6216 57.0681 -0.0941577 -8.72023 -1.23519 9.58606e-11 -1.00733e-09 1.05644e-09 1.58496e-10 -1.73839e-09 1.82495e-09 9.5865e-11 -1.00733e-09 1.05643e-09 7.73091 5.47488 0.417314 9.58601e-11 -1.00733e-09 1.05643e-09 2.90554 0.965183 0.102902 9.58698e-11 -1.00733e-09 1.05643e-09 10.2786 0.731801 0.0259123 9.58544e-11 -1.00733e-09 1.05644e-09 2.22167 -0.733487 -0.20892 1.00825e-13 -6.26084e-14 -1.20341e-13 -37.5823 53.4341 -33.9758 24.9032 -20.8874 -52.6374 0.0264069 -4.59609 0.647392 -2.61101e-11 1.29739e-09 -1.16769e-09 -3.94384e-11 2.2497e-09 -2.02046e-09 -2.61109e-11 1.29739e-09 -1.16768e-09 -7.73091 5.47488 -0.417314 -2.61125e-11 1.29739e-09 -1.16768e-09 -2.90554 0.965183 -0.102902 -2.61145e-11 1.29739e-09 -1.16768e-09 -10.2786 0.731801 -0.0259123 -2.61056e-11 1.29739e-09 -1.16769e-09 -2.22167 -0.733487 0.20892 -2.03217e-16 0.0 -3.88251e-19 4.30013 -44.3181 10.8861 -0.215221 33.5688 0.522239 -0.513293 23.9368 0.638059 2.03217e-16 0.0 3.88251e-19 -1.45731 -59.1537 -17.5014 0.57866 48.1981 -0.740031 -2.79223 24.7917 8.72232
61.6804 120.984 54.8977 236.751 -253.655 -98.6436 -7.62755 -22.4632 -5.87935 2.3746 9.51501 -1.35372 -3.13245 15.7038 -0.694006 9.73121 -19.5936 0.607839 -0.0 0.0 0.0 -0.0 0.0 0.0 1.67048e-13 -4.48061e-13 -8.89064e-14 94.1409 29.2275 -16.5675 -26.0403 -23.5386 56.9336 -0.0906785 -8.55805 -1.21187 -6.11287e-11 -2.87752e-10 6.87063e-11 -1.056e-10 -5.01154e-10 1.20001e-10 -6.11239e-11 -2.87751e-10 6.86936e-11 7.73091 5.47488 0.417314 -6.11287e-11 -2.87751e-10 6.87e-11 2.90554 0.965183 0.102902 -6.11179e-11 -2.8775e-10 6.87024e-11 10.2786 0.731801 0.0259123 -6.11358e-11 -2.87748e-10 6.87127e-11 2.22167 -0.733487 -0.20892 1.66922e-13 -4.48061e-13 -8.91549e-14 -37.6806 52.564 -32.4666 25.0456 -21.1942 -53.1112 0.0313129 -5.04459 0.710827 -1.00786e-10 6.92817e-10 -6.22956e-10 -1.69941e-10 1.20457e-09 -1.08168e-09 -1.00788e-10 6.92817e-10 -6.22943e-10 -7.73091 5.47488 -0.417314 -1.00788e-10 6.9282e-10 -6.22947e-10 -2.90554 0.965183 -0.102902 -1.00789e-10 6.92817e-10 -6.22947e-10 -10.2786 0.731801 -0.0259123 -1.00779e-10 6.92819e-10 -6.2295e-10 -2.22167 -0.733487 0.20892 -2.03217e-16 0.0 -3.88251e-19 3.92385 -44.2507 12.2614 -0.210945 33.3306 0.522041 -0.515056 23.0221 0.664901 2.03217e-16 0.0 3.88251e-19 -0.667696 -59.7951 -15.738 0.610305 49.212 -0.784763 -2.83821 24.4617 8.98059
61.8655 120.281 55.1761 246.948 -254.949 -88.2992 -7.6992 -22.857 -6.12371 2.48557 9.50555 -1.41168 -3.29944 15.7112 -0.6266 9.77291 -19.5756 0.754009 -0.0 0.0 0.0 -0.0 0.0 0.0 1.51312e-13 -4.04614e-13 -6.91037e-14 94.0841 29.4932 -17.0145 -26.0035 -23.4438 56.7795 -0.0890345 -8.47953 -1.20059 -1.0243e-11 -2.7511e-10 2.48883e-10 -1.90146e-11 -4.79597e-10 4.31198e-10 -1.02354e-11 -2.75109e-10 2.48861e-10 7.73091 5.47488 0.417314 -1.02424e-11 -2.75109e-10 2.48877e-10 2.90554 0.965183 0.102902 -1.02319e-11 -2.75109e-10 2.48879e-10 10.2786 0.731801 0.0259123 -1.025e-11 -2.75107e-10 2.48889e-10 2.22167 -0.733487 -0.20892 1.51178e-13 -4.04607e-13 -6.93557e-14 -38.0438 51.5532 -30.696 25.2433 -21.63 -53.7987 0.0382258 -5.63638 0.794632 1.7735e-10 7.47023e-10 -9.02993e-10 3.13474e-10 1.29742e-09 -1.56333e-09 1.77346e-10 7.47023e-10 -9.0298e-10 -7.73091 5.47488 -0.417314 1.77348e-10 7.47026e-10 -9.02985e-10 -2.90554 0.965183 -0.102902 1.77347e-10 7.47023e-10 -9.02985e-10 -10.2786 0.731801 -0.0259123 1.77357e-10 7.47025e-10 -9.02987e-10 -2.22167 -0.733487 0.20892 -2.03217e-16 0.0 -3.88251e-19 3.71387 -44.1882 13.7904 -0.206099 33.0835 0.521957 -0.521337 22.2032 0.704865 2.03217e-16 0.0 3.88251e-19 0.218787 -60.5156 -14.1148 0.64812 50.3357 -0.833719 -2.91439 24.1718 9.32699
